<?xml version="1.0" standalone="no"?>
<!DOCTYPE svg PUBLIC "-//W3C//DTD SVG 20010904//EN"
 "http://www.w3.org/TR/2001/REC-SVG-20010904/DTD/svg10.dtd">
<svg version="1.0" xmlns="http://www.w3.org/2000/svg"
 width="512.000000pt" height="512.000000pt" viewBox="0 0 512.000000 512.000000"
 preserveAspectRatio="xMidYMid meet">

<g transform="translate(0.000000,512.000000) scale(0.100000,-0.100000)"
fill="#000000" stroke="none">
<path d="M1676 5109 c-215 -31 -398 -122 -560 -278 -98 -95 -154 -173 -210
-292 -66 -140 -87 -229 -93 -394 -6 -166 13 -279 70 -419 75 -184 91 -202 831
-943 751 -753 721 -726 847 -727 124 0 101 -20 850 731 734 736 751 756 826
939 57 140 76 253 70 419 -4 98 -12 164 -27 220 -27 100 -96 248 -154 329 -57
80 -195 213 -270 261 -306 195 -686 216 -1007 54 -75 -37 -215 -136 -253 -178
-11 -12 -26 -21 -33 -21 -8 0 -40 23 -71 51 -220 196 -528 290 -816 248z m288
-243 c140 -27 259 -88 375 -190 86 -76 138 -100 221 -100 83 0 134 23 223 101
170 148 349 212 562 200 122 -7 195 -26 300 -77 155 -76 273 -196 350 -355 55
-113 75 -205 75 -337 0 -168 -40 -300 -131 -435 -41 -62 -1359 -1383 -1379
-1383 -20 0 -1338 1321 -1377 1380 -94 140 -133 268 -133 432 0 133 19 226 70
333 103 222 300 378 540 429 86 19 211 19 304 2z"/>
<path d="M204 3361 c-72 -33 -128 -129 -163 -281 -86 -366 -34 -885 141 -1419
176 -540 367 -791 923 -1216 218 -166 324 -254 413 -342 46 -47 95 -89 109
-94 34 -13 1834 -12 1868 1 14 5 64 48 110 94 84 84 174 158 506 416 358 278
578 536 712 837 124 276 236 686 278 1018 19 149 17 508 -4 620 -54 295 -160
425 -303 370 -35 -13 -53 -29 -75 -63 -37 -58 -42 -75 -84 -307 -81 -435 -167
-711 -315 -1005 -140 -278 -397 -562 -562 -621 -21 -7 -40 -10 -43 -8 -3 3 36
75 85 160 323 552 360 743 156 809 -80 26 -189 -8 -313 -96 -207 -148 -572
-538 -775 -829 -112 -160 -237 -384 -283 -508 -10 -26 -21 -47 -25 -47 -3 0
-17 26 -30 58 -139 344 -469 794 -835 1138 -260 244 -408 324 -531 284 -91
-30 -128 -80 -126 -175 1 -107 90 -307 282 -634 49 -85 90 -156 90 -158 0 -12
-42 2 -104 34 -152 79 -384 351 -506 593 -148 294 -234 570 -315 1005 -19 105
-39 206 -45 225 -20 68 -53 114 -100 138 -54 27 -82 27 -136 3z m97 -651 c114
-528 307 -943 586 -1264 172 -197 361 -314 538 -332 54 -6 70 -3 119 19 94 43
143 149 117 254 -7 25 -60 128 -118 227 -121 207 -239 433 -231 442 11 10 183
-144 338 -302 266 -273 479 -560 606 -819 78 -160 118 -278 139 -415 9 -58 25
-142 36 -188 10 -45 19 -85 19 -87 0 -3 -165 -5 -366 -5 l-367 0 -81 78 c-84
80 -168 148 -450 366 -334 258 -520 466 -646 721 -208 425 -336 1060 -293
1456 6 60 7 62 14 29 5 -19 22 -100 40 -180z m4575 -90 c-10 -332 -82 -676
-215 -1029 -148 -390 -316 -592 -816 -976 -207 -159 -319 -252 -390 -324 l-49
-51 -373 0 c-353 0 -373 1 -365 18 11 21 34 127 62 286 54 309 256 668 591
1050 156 178 471 477 486 462 11 -11 -103 -227 -253 -482 -92 -156 -110 -207
-100 -274 22 -146 145 -217 306 -176 402 102 794 630 999 1344 31 108 93 380
102 448 1 5 6 -20 11 -56 5 -36 7 -144 4 -240z"/>
</g>
</svg>
